<svg width="30" height="31" viewBox="0 0 30 31" fill="none" xmlns="http://www.w3.org/2000/svg">
<path d="M21.375 22.7855H7.50006C3.36757 22.7855 7.83385e-05 19.4853 7.83385e-05 15.4353C-0.00663259 14.0004 0.417967 12.5953 1.2209 11.3954C2.02383 10.1954 3.16954 9.25376 4.51507 8.68788C4.64765 6.34209 5.69128 4.13498 7.43181 2.51943C9.17234 0.903882 11.4778 0.00241276 13.875 0C17.7975 0 21.3 2.42555 22.6575 5.98302C24.6983 6.28375 26.5613 7.29161 27.9086 8.82365C29.2558 10.3557 29.9978 12.3103 30 14.3328C30 18.9928 26.13 22.7855 21.375 22.7855ZM13.875 2.20505C9.94505 2.20505 6.75006 5.33621 6.75006 9.18769L6.78756 10.2682L5.96256 10.5107C4.88318 10.8281 3.93756 11.4792 3.26705 12.3668C2.59654 13.2545 2.23714 14.3309 2.24257 15.4353C2.24257 18.2725 4.59757 20.5804 7.49256 20.5804H21.3675C23.0579 20.5793 24.6787 19.9207 25.874 18.7492C27.0693 17.5778 27.7413 15.9894 27.7425 14.3328C27.7425 10.8856 25.1025 8.29832 21.7425 8.10722L20.94 8.06312L20.7225 7.30605C20.3002 5.84215 19.4026 4.55301 18.1657 3.63389C16.9287 2.71476 15.4198 2.21574 13.8675 2.2124L13.875 2.20505ZM21.8715 24.135L18.873 30.0121L20.886 30.9971L23.8845 25.1214L21.8715 24.135ZM14.37 24.1379L11.37 30.0151L13.383 31L16.383 25.1243L14.37 24.1379ZM6.86706 24.1335L3.87007 30.0107L5.88306 30.9956L8.88306 25.1199L6.86706 24.1335Z" fill="black"/>
</svg>
